<mxfile host="drawio-plugin" modified="2021-03-12T23:43:50.650Z" agent="5.0 (X11; Linux x86_64) AppleWebKit/537.36 (KHTML, like Gecko) Chrome/84.0.4147.105 Safari/537.36" etag="AWBTid2c-RLP6MfKndxc" version="13.7.9" type="embed"><diagram id="R2lEEEUBdFMjLlhIrx00" name="Page-1"><mxGraphModel dx="1341" dy="717" grid="1" gridSize="10" guides="1" tooltips="1" connect="1" arrows="1" fold="1" page="1" pageScale="1" pageWidth="850" pageHeight="1100" math="0" shadow="0" extFonts="Permanent Marker^https://fonts.googleapis.com/css?family=Permanent+Marker"><root><mxCell id="0"/><mxCell id="1" parent="0"/><mxCell id="0Q_aEVLJS1OcodbFEQq5-77" value="ingredient" style="shape=table;startSize=30;container=1;collapsible=1;childLayout=tableLayout;fixedRows=1;rowLines=0;fontStyle=1;align=center;resizeLast=1;" parent="1" vertex="1"><mxGeometry x="40" y="40" width="150" height="280" as="geometry"/></mxCell><mxCell id="0Q_aEVLJS1OcodbFEQq5-78" value="" style="shape=partialRectangle;collapsible=0;dropTarget=0;pointerEvents=0;fillColor=none;points=[[0,0.5],[1,0.5]];portConstraint=eastwest;top=0;left=0;right=0;bottom=1;" parent="0Q_aEVLJS1OcodbFEQq5-77" vertex="1"><mxGeometry y="30" width="150" height="30" as="geometry"/></mxCell><mxCell id="0Q_aEVLJS1OcodbFEQq5-79" value="PK" style="shape=partialRectangle;overflow=hidden;connectable=0;fillColor=none;top=0;left=0;bottom=0;right=0;fontStyle=1;" parent="0Q_aEVLJS1OcodbFEQq5-78" vertex="1"><mxGeometry width="30" height="30" as="geometry"/></mxCell><mxCell id="0Q_aEVLJS1OcodbFEQq5-80" value="id" style="shape=partialRectangle;overflow=hidden;connectable=0;fillColor=none;top=0;left=0;bottom=0;right=0;align=left;spacingLeft=6;fontStyle=1;" parent="0Q_aEVLJS1OcodbFEQq5-78" vertex="1"><mxGeometry x="30" width="120" height="30" as="geometry"/></mxCell><mxCell id="0Q_aEVLJS1OcodbFEQq5-81" value="" style="shape=partialRectangle;collapsible=0;dropTarget=0;pointerEvents=0;fillColor=none;points=[[0,0.5],[1,0.5]];portConstraint=eastwest;top=0;left=0;right=0;bottom=0;" parent="0Q_aEVLJS1OcodbFEQq5-77" vertex="1"><mxGeometry y="60" width="150" height="30" as="geometry"/></mxCell><mxCell id="0Q_aEVLJS1OcodbFEQq5-82" value="" style="shape=partialRectangle;overflow=hidden;connectable=0;fillColor=none;top=0;left=0;bottom=0;right=0;" parent="0Q_aEVLJS1OcodbFEQq5-81" vertex="1"><mxGeometry width="30" height="30" as="geometry"/></mxCell><mxCell id="0Q_aEVLJS1OcodbFEQq5-83" value="isle_id" style="shape=partialRectangle;overflow=hidden;connectable=0;fillColor=none;top=0;left=0;bottom=0;right=0;align=left;spacingLeft=6;" parent="0Q_aEVLJS1OcodbFEQq5-81" vertex="1"><mxGeometry x="30" width="120" height="30" as="geometry"/></mxCell><mxCell id="30" value="" style="shape=partialRectangle;collapsible=0;dropTarget=0;pointerEvents=0;fillColor=none;points=[[0,0.5],[1,0.5]];portConstraint=eastwest;top=0;left=0;right=0;bottom=0;" vertex="1" parent="0Q_aEVLJS1OcodbFEQq5-77"><mxGeometry y="90" width="150" height="30" as="geometry"/></mxCell><mxCell id="31" value="" style="shape=partialRectangle;overflow=hidden;connectable=0;fillColor=none;top=0;left=0;bottom=0;right=0;" vertex="1" parent="30"><mxGeometry width="30" height="30" as="geometry"/></mxCell><mxCell id="32" value="name" style="shape=partialRectangle;overflow=hidden;connectable=0;fillColor=none;top=0;left=0;bottom=0;right=0;align=left;spacingLeft=6;" vertex="1" parent="30"><mxGeometry x="30" width="120" height="30" as="geometry"/></mxCell><mxCell id="0Q_aEVLJS1OcodbFEQq5-84" value="" style="shape=partialRectangle;collapsible=0;dropTarget=0;pointerEvents=0;fillColor=none;points=[[0,0.5],[1,0.5]];portConstraint=eastwest;top=0;left=0;right=0;bottom=0;" parent="0Q_aEVLJS1OcodbFEQq5-77" vertex="1"><mxGeometry y="120" width="150" height="30" as="geometry"/></mxCell><mxCell id="0Q_aEVLJS1OcodbFEQq5-85" value="" style="shape=partialRectangle;overflow=hidden;connectable=0;fillColor=none;top=0;left=0;bottom=0;right=0;" parent="0Q_aEVLJS1OcodbFEQq5-84" vertex="1"><mxGeometry width="30" height="30" as="geometry"/></mxCell><mxCell id="0Q_aEVLJS1OcodbFEQq5-86" value="text" style="shape=partialRectangle;overflow=hidden;connectable=0;fillColor=none;top=0;left=0;bottom=0;right=0;align=left;spacingLeft=6;" parent="0Q_aEVLJS1OcodbFEQq5-84" vertex="1"><mxGeometry x="30" width="120" height="30" as="geometry"/></mxCell><mxCell id="0Q_aEVLJS1OcodbFEQq5-87" value="" style="shape=partialRectangle;collapsible=0;dropTarget=0;pointerEvents=0;fillColor=none;points=[[0,0.5],[1,0.5]];portConstraint=eastwest;top=0;left=0;right=0;bottom=0;" parent="0Q_aEVLJS1OcodbFEQq5-77" vertex="1"><mxGeometry y="150" width="150" height="30" as="geometry"/></mxCell><mxCell id="0Q_aEVLJS1OcodbFEQq5-88" value="" style="shape=partialRectangle;overflow=hidden;connectable=0;fillColor=none;top=0;left=0;bottom=0;right=0;" parent="0Q_aEVLJS1OcodbFEQq5-87" vertex="1"><mxGeometry width="30" height="30" as="geometry"/></mxCell><mxCell id="0Q_aEVLJS1OcodbFEQq5-89" value="recipe_unit" style="shape=partialRectangle;overflow=hidden;connectable=0;fillColor=none;top=0;left=0;bottom=0;right=0;align=left;spacingLeft=6;" parent="0Q_aEVLJS1OcodbFEQq5-87" vertex="1"><mxGeometry x="30" width="120" height="30" as="geometry"/></mxCell><mxCell id="0Q_aEVLJS1OcodbFEQq5-90" value="" style="shape=partialRectangle;collapsible=0;dropTarget=0;pointerEvents=0;fillColor=none;points=[[0,0.5],[1,0.5]];portConstraint=eastwest;top=0;left=0;right=0;bottom=0;" parent="0Q_aEVLJS1OcodbFEQq5-77" vertex="1"><mxGeometry y="180" width="150" height="30" as="geometry"/></mxCell><mxCell id="0Q_aEVLJS1OcodbFEQq5-91" value="" style="shape=partialRectangle;overflow=hidden;connectable=0;fillColor=none;top=0;left=0;bottom=0;right=0;" parent="0Q_aEVLJS1OcodbFEQq5-90" vertex="1"><mxGeometry width="30" height="30" as="geometry"/></mxCell><mxCell id="0Q_aEVLJS1OcodbFEQq5-92" value="store_unit" style="shape=partialRectangle;overflow=hidden;connectable=0;fillColor=none;top=0;left=0;bottom=0;right=0;align=left;spacingLeft=6;" parent="0Q_aEVLJS1OcodbFEQq5-90" vertex="1"><mxGeometry x="30" width="120" height="30" as="geometry"/></mxCell><mxCell id="0Q_aEVLJS1OcodbFEQq5-93" value="" style="shape=partialRectangle;collapsible=0;dropTarget=0;pointerEvents=0;fillColor=none;points=[[0,0.5],[1,0.5]];portConstraint=eastwest;top=0;left=0;right=0;bottom=0;" parent="0Q_aEVLJS1OcodbFEQq5-77" vertex="1"><mxGeometry y="210" width="150" height="30" as="geometry"/></mxCell><mxCell id="0Q_aEVLJS1OcodbFEQq5-94" value="" style="shape=partialRectangle;overflow=hidden;connectable=0;fillColor=none;top=0;left=0;bottom=0;right=0;" parent="0Q_aEVLJS1OcodbFEQq5-93" vertex="1"><mxGeometry width="30" height="30" as="geometry"/></mxCell><mxCell id="0Q_aEVLJS1OcodbFEQq5-95" value="store_unit_price" style="shape=partialRectangle;overflow=hidden;connectable=0;fillColor=none;top=0;left=0;bottom=0;right=0;align=left;spacingLeft=6;" parent="0Q_aEVLJS1OcodbFEQq5-93" vertex="1"><mxGeometry x="30" width="120" height="30" as="geometry"/></mxCell><mxCell id="0Q_aEVLJS1OcodbFEQq5-96" value="" style="shape=partialRectangle;collapsible=0;dropTarget=0;pointerEvents=0;fillColor=none;points=[[0,0.5],[1,0.5]];portConstraint=eastwest;top=0;left=0;right=0;bottom=0;" parent="0Q_aEVLJS1OcodbFEQq5-77" vertex="1"><mxGeometry y="240" width="150" height="30" as="geometry"/></mxCell><mxCell id="0Q_aEVLJS1OcodbFEQq5-97" value="" style="shape=partialRectangle;overflow=hidden;connectable=0;fillColor=none;top=0;left=0;bottom=0;right=0;" parent="0Q_aEVLJS1OcodbFEQq5-96" vertex="1"><mxGeometry width="30" height="30" as="geometry"/></mxCell><mxCell id="0Q_aEVLJS1OcodbFEQq5-98" value="unit_conversion" style="shape=partialRectangle;overflow=hidden;connectable=0;fillColor=none;top=0;left=0;bottom=0;right=0;align=left;spacingLeft=6;" parent="0Q_aEVLJS1OcodbFEQq5-96" vertex="1"><mxGeometry x="30" width="120" height="30" as="geometry"/></mxCell><mxCell id="33" value="isle" style="shape=table;startSize=30;container=1;collapsible=1;childLayout=tableLayout;fixedRows=1;rowLines=0;fontStyle=1;align=center;resizeLast=1;" vertex="1" parent="1"><mxGeometry x="40" y="360" width="150" height="100" as="geometry"/></mxCell><mxCell id="34" value="" style="shape=partialRectangle;collapsible=0;dropTarget=0;pointerEvents=0;fillColor=none;points=[[0,0.5],[1,0.5]];portConstraint=eastwest;top=0;left=0;right=0;bottom=1;" vertex="1" parent="33"><mxGeometry y="30" width="150" height="30" as="geometry"/></mxCell><mxCell id="35" value="PK" style="shape=partialRectangle;overflow=hidden;connectable=0;fillColor=none;top=0;left=0;bottom=0;right=0;fontStyle=1;" vertex="1" parent="34"><mxGeometry width="30" height="30" as="geometry"/></mxCell><mxCell id="36" value="id" style="shape=partialRectangle;overflow=hidden;connectable=0;fillColor=none;top=0;left=0;bottom=0;right=0;align=left;spacingLeft=6;fontStyle=1;" vertex="1" parent="34"><mxGeometry x="30" width="120" height="30" as="geometry"/></mxCell><mxCell id="37" value="" style="shape=partialRectangle;collapsible=0;dropTarget=0;pointerEvents=0;fillColor=none;points=[[0,0.5],[1,0.5]];portConstraint=eastwest;top=0;left=0;right=0;bottom=0;" vertex="1" parent="33"><mxGeometry y="60" width="150" height="30" as="geometry"/></mxCell><mxCell id="38" value="" style="shape=partialRectangle;overflow=hidden;connectable=0;fillColor=none;top=0;left=0;bottom=0;right=0;" vertex="1" parent="37"><mxGeometry width="30" height="30" as="geometry"/></mxCell><mxCell id="39" value="name" style="shape=partialRectangle;overflow=hidden;connectable=0;fillColor=none;top=0;left=0;bottom=0;right=0;align=left;spacingLeft=6;" vertex="1" parent="37"><mxGeometry x="30" width="120" height="30" as="geometry"/></mxCell><mxCell id="C-vyLk0tnHw3VtMMgP7b-23" value="recipe" style="shape=table;startSize=30;container=1;collapsible=1;childLayout=tableLayout;fixedRows=1;rowLines=0;fontStyle=1;align=center;resizeLast=1;" parent="1" vertex="1"><mxGeometry x="280" y="360" width="130" height="130" as="geometry"/></mxCell><mxCell id="C-vyLk0tnHw3VtMMgP7b-24" value="" style="shape=partialRectangle;collapsible=0;dropTarget=0;pointerEvents=0;fillColor=none;points=[[0,0.5],[1,0.5]];portConstraint=eastwest;top=0;left=0;right=0;bottom=1;" parent="C-vyLk0tnHw3VtMMgP7b-23" vertex="1"><mxGeometry y="30" width="130" height="30" as="geometry"/></mxCell><mxCell id="C-vyLk0tnHw3VtMMgP7b-25" value="PK" style="shape=partialRectangle;overflow=hidden;connectable=0;fillColor=none;top=0;left=0;bottom=0;right=0;fontStyle=1;" parent="C-vyLk0tnHw3VtMMgP7b-24" vertex="1"><mxGeometry width="30" height="30" as="geometry"/></mxCell><mxCell id="C-vyLk0tnHw3VtMMgP7b-26" value="id" style="shape=partialRectangle;overflow=hidden;connectable=0;fillColor=none;top=0;left=0;bottom=0;right=0;align=left;spacingLeft=6;fontStyle=1;" parent="C-vyLk0tnHw3VtMMgP7b-24" vertex="1"><mxGeometry x="30" width="100" height="30" as="geometry"/></mxCell><mxCell id="0Q_aEVLJS1OcodbFEQq5-20" value="" style="shape=partialRectangle;collapsible=0;dropTarget=0;pointerEvents=0;fillColor=none;points=[[0,0.5],[1,0.5]];portConstraint=eastwest;top=0;left=0;right=0;bottom=0;" parent="C-vyLk0tnHw3VtMMgP7b-23" vertex="1"><mxGeometry y="60" width="130" height="30" as="geometry"/></mxCell><mxCell id="0Q_aEVLJS1OcodbFEQq5-21" value="" style="shape=partialRectangle;overflow=hidden;connectable=0;fillColor=none;top=0;left=0;bottom=0;right=0;" parent="0Q_aEVLJS1OcodbFEQq5-20" vertex="1"><mxGeometry width="30" height="30" as="geometry"/></mxCell><mxCell id="0Q_aEVLJS1OcodbFEQq5-22" value="name" style="shape=partialRectangle;overflow=hidden;connectable=0;fillColor=none;top=0;left=0;bottom=0;right=0;align=left;spacingLeft=6;" parent="0Q_aEVLJS1OcodbFEQq5-20" vertex="1"><mxGeometry x="30" width="100" height="30" as="geometry"/></mxCell><mxCell id="0Q_aEVLJS1OcodbFEQq5-32" value="" style="shape=partialRectangle;collapsible=0;dropTarget=0;pointerEvents=0;fillColor=none;points=[[0,0.5],[1,0.5]];portConstraint=eastwest;top=0;left=0;right=0;bottom=0;" parent="C-vyLk0tnHw3VtMMgP7b-23" vertex="1"><mxGeometry y="90" width="130" height="30" as="geometry"/></mxCell><mxCell id="0Q_aEVLJS1OcodbFEQq5-33" value="" style="shape=partialRectangle;overflow=hidden;connectable=0;fillColor=none;top=0;left=0;bottom=0;right=0;" parent="0Q_aEVLJS1OcodbFEQq5-32" vertex="1"><mxGeometry width="30" height="30" as="geometry"/></mxCell><mxCell id="0Q_aEVLJS1OcodbFEQq5-34" value="text (html string)" style="shape=partialRectangle;overflow=hidden;connectable=0;fillColor=none;top=0;left=0;bottom=0;right=0;align=left;spacingLeft=6;" parent="0Q_aEVLJS1OcodbFEQq5-32" vertex="1"><mxGeometry x="30" width="100" height="30" as="geometry"/></mxCell><mxCell id="0Q_aEVLJS1OcodbFEQq5-106" value="recipe_ingredient" style="shape=table;startSize=30;container=1;collapsible=1;childLayout=tableLayout;fixedRows=1;rowLines=0;fontStyle=1;align=center;resizeLast=1;" parent="1" vertex="1"><mxGeometry x="280" y="40" width="150" height="130" as="geometry"/></mxCell><mxCell id="0Q_aEVLJS1OcodbFEQq5-107" value="" style="shape=partialRectangle;collapsible=0;dropTarget=0;pointerEvents=0;fillColor=none;points=[[0,0.5],[1,0.5]];portConstraint=eastwest;top=0;left=0;right=0;bottom=1;" parent="0Q_aEVLJS1OcodbFEQq5-106" vertex="1"><mxGeometry y="30" width="150" height="30" as="geometry"/></mxCell><mxCell id="0Q_aEVLJS1OcodbFEQq5-108" value="PK" style="shape=partialRectangle;overflow=hidden;connectable=0;fillColor=none;top=0;left=0;bottom=0;right=0;fontStyle=1;" parent="0Q_aEVLJS1OcodbFEQq5-107" vertex="1"><mxGeometry width="30" height="30" as="geometry"/></mxCell><mxCell id="0Q_aEVLJS1OcodbFEQq5-109" value="ingredient_id" style="shape=partialRectangle;overflow=hidden;connectable=0;fillColor=none;top=0;left=0;bottom=0;right=0;align=left;spacingLeft=6;fontStyle=1;" parent="0Q_aEVLJS1OcodbFEQq5-107" vertex="1"><mxGeometry x="30" width="120" height="30" as="geometry"/></mxCell><mxCell id="0Q_aEVLJS1OcodbFEQq5-119" value="" style="shape=partialRectangle;collapsible=0;dropTarget=0;pointerEvents=0;fillColor=none;points=[[0,0.5],[1,0.5]];portConstraint=eastwest;top=0;left=0;right=0;bottom=1;" parent="0Q_aEVLJS1OcodbFEQq5-106" vertex="1"><mxGeometry y="60" width="150" height="30" as="geometry"/></mxCell><mxCell id="0Q_aEVLJS1OcodbFEQq5-120" value="PK" style="shape=partialRectangle;overflow=hidden;connectable=0;fillColor=none;top=0;left=0;bottom=0;right=0;fontStyle=1;" parent="0Q_aEVLJS1OcodbFEQq5-119" vertex="1"><mxGeometry width="30" height="30" as="geometry"/></mxCell><mxCell id="0Q_aEVLJS1OcodbFEQq5-121" value="recipe_id" style="shape=partialRectangle;overflow=hidden;connectable=0;fillColor=none;top=0;left=0;bottom=0;right=0;align=left;spacingLeft=6;fontStyle=1;" parent="0Q_aEVLJS1OcodbFEQq5-119" vertex="1"><mxGeometry x="30" width="120" height="30" as="geometry"/></mxCell><mxCell id="0Q_aEVLJS1OcodbFEQq5-110" value="" style="shape=partialRectangle;collapsible=0;dropTarget=0;pointerEvents=0;fillColor=none;points=[[0,0.5],[1,0.5]];portConstraint=eastwest;top=0;left=0;right=0;bottom=0;" parent="0Q_aEVLJS1OcodbFEQq5-106" vertex="1"><mxGeometry y="90" width="150" height="30" as="geometry"/></mxCell><mxCell id="0Q_aEVLJS1OcodbFEQq5-111" value="" style="shape=partialRectangle;overflow=hidden;connectable=0;fillColor=none;top=0;left=0;bottom=0;right=0;" parent="0Q_aEVLJS1OcodbFEQq5-110" vertex="1"><mxGeometry width="30" height="30" as="geometry"/></mxCell><mxCell id="0Q_aEVLJS1OcodbFEQq5-112" value="amount (float)" style="shape=partialRectangle;overflow=hidden;connectable=0;fillColor=none;top=0;left=0;bottom=0;right=0;align=left;spacingLeft=6;" parent="0Q_aEVLJS1OcodbFEQq5-110" vertex="1"><mxGeometry x="30" width="120" height="30" as="geometry"/></mxCell><mxCell id="C-vyLk0tnHw3VtMMgP7b-2" value="session" style="shape=table;startSize=30;container=1;collapsible=1;childLayout=tableLayout;fixedRows=1;rowLines=0;fontStyle=1;align=center;resizeLast=1;" parent="1" vertex="1"><mxGeometry x="510" y="40" width="80" height="100" as="geometry"/></mxCell><mxCell id="C-vyLk0tnHw3VtMMgP7b-3" value="" style="shape=partialRectangle;collapsible=0;dropTarget=0;pointerEvents=0;fillColor=none;points=[[0,0.5],[1,0.5]];portConstraint=eastwest;top=0;left=0;right=0;bottom=1;" parent="C-vyLk0tnHw3VtMMgP7b-2" vertex="1"><mxGeometry y="30" width="80" height="30" as="geometry"/></mxCell><mxCell id="C-vyLk0tnHw3VtMMgP7b-4" value="PK" style="shape=partialRectangle;overflow=hidden;connectable=0;fillColor=none;top=0;left=0;bottom=0;right=0;fontStyle=1;" parent="C-vyLk0tnHw3VtMMgP7b-3" vertex="1"><mxGeometry width="30" height="30" as="geometry"/></mxCell><mxCell id="C-vyLk0tnHw3VtMMgP7b-5" value="id" style="shape=partialRectangle;overflow=hidden;connectable=0;fillColor=none;top=0;left=0;bottom=0;right=0;align=left;spacingLeft=6;fontStyle=1;" parent="C-vyLk0tnHw3VtMMgP7b-3" vertex="1"><mxGeometry x="30" width="50" height="30" as="geometry"/></mxCell><mxCell id="C-vyLk0tnHw3VtMMgP7b-6" value="" style="shape=partialRectangle;collapsible=0;dropTarget=0;pointerEvents=0;fillColor=none;points=[[0,0.5],[1,0.5]];portConstraint=eastwest;top=0;left=0;right=0;bottom=0;" parent="C-vyLk0tnHw3VtMMgP7b-2" vertex="1"><mxGeometry y="60" width="80" height="30" as="geometry"/></mxCell><mxCell id="C-vyLk0tnHw3VtMMgP7b-7" value="" style="shape=partialRectangle;overflow=hidden;connectable=0;fillColor=none;top=0;left=0;bottom=0;right=0;" parent="C-vyLk0tnHw3VtMMgP7b-6" vertex="1"><mxGeometry width="30" height="30" as="geometry"/></mxCell><mxCell id="C-vyLk0tnHw3VtMMgP7b-8" value="date" style="shape=partialRectangle;overflow=hidden;connectable=0;fillColor=none;top=0;left=0;bottom=0;right=0;align=left;spacingLeft=6;" parent="C-vyLk0tnHw3VtMMgP7b-6" vertex="1"><mxGeometry x="30" width="50" height="30" as="geometry"/></mxCell><mxCell id="0Q_aEVLJS1OcodbFEQq5-48" value="session_participant" style="shape=table;startSize=30;container=1;collapsible=1;childLayout=tableLayout;fixedRows=1;rowLines=0;fontStyle=1;align=center;resizeLast=1;" parent="1" vertex="1"><mxGeometry x="510" y="190" width="130" height="100" as="geometry"><mxRectangle x="270" y="250" width="120" height="30" as="alternateBounds"/></mxGeometry></mxCell><mxCell id="0Q_aEVLJS1OcodbFEQq5-49" value="" style="shape=partialRectangle;collapsible=0;dropTarget=0;pointerEvents=0;fillColor=none;points=[[0,0.5],[1,0.5]];portConstraint=eastwest;top=0;left=0;right=0;bottom=1;" parent="0Q_aEVLJS1OcodbFEQq5-48" vertex="1"><mxGeometry y="30" width="130" height="30" as="geometry"/></mxCell><mxCell id="0Q_aEVLJS1OcodbFEQq5-50" value="PK" style="shape=partialRectangle;overflow=hidden;connectable=0;fillColor=none;top=0;left=0;bottom=0;right=0;fontStyle=1;" parent="0Q_aEVLJS1OcodbFEQq5-49" vertex="1"><mxGeometry width="30" height="30" as="geometry"/></mxCell><mxCell id="0Q_aEVLJS1OcodbFEQq5-51" value="session_id" style="shape=partialRectangle;overflow=hidden;connectable=0;fillColor=none;top=0;left=0;bottom=0;right=0;align=left;spacingLeft=6;fontStyle=1;" parent="0Q_aEVLJS1OcodbFEQq5-49" vertex="1"><mxGeometry x="30" width="100" height="30" as="geometry"/></mxCell><mxCell id="0Q_aEVLJS1OcodbFEQq5-52" value="" style="shape=partialRectangle;collapsible=0;dropTarget=0;pointerEvents=0;fillColor=none;points=[[0,0.5],[1,0.5]];portConstraint=eastwest;top=0;left=0;right=0;bottom=1;" parent="0Q_aEVLJS1OcodbFEQq5-48" vertex="1"><mxGeometry y="60" width="130" height="30" as="geometry"/></mxCell><mxCell id="0Q_aEVLJS1OcodbFEQq5-53" value="PK" style="shape=partialRectangle;overflow=hidden;connectable=0;fillColor=none;top=0;left=0;bottom=0;right=0;fontStyle=1;" parent="0Q_aEVLJS1OcodbFEQq5-52" vertex="1"><mxGeometry width="30" height="30" as="geometry"/></mxCell><mxCell id="0Q_aEVLJS1OcodbFEQq5-54" value="participant_id" style="shape=partialRectangle;overflow=hidden;connectable=0;fillColor=none;top=0;left=0;bottom=0;right=0;align=left;spacingLeft=6;fontStyle=1;" parent="0Q_aEVLJS1OcodbFEQq5-52" vertex="1"><mxGeometry x="30" width="100" height="30" as="geometry"/></mxCell><mxCell id="0Q_aEVLJS1OcodbFEQq5-55" value="participant" style="shape=table;startSize=30;container=1;collapsible=1;childLayout=tableLayout;fixedRows=1;rowLines=0;fontStyle=1;align=center;resizeLast=1;" parent="1" vertex="1"><mxGeometry x="510" y="330" width="150" height="160" as="geometry"/></mxCell><mxCell id="0Q_aEVLJS1OcodbFEQq5-56" value="" style="shape=partialRectangle;collapsible=0;dropTarget=0;pointerEvents=0;fillColor=none;points=[[0,0.5],[1,0.5]];portConstraint=eastwest;top=0;left=0;right=0;bottom=1;" parent="0Q_aEVLJS1OcodbFEQq5-55" vertex="1"><mxGeometry y="30" width="150" height="30" as="geometry"/></mxCell><mxCell id="0Q_aEVLJS1OcodbFEQq5-57" value="PK" style="shape=partialRectangle;overflow=hidden;connectable=0;fillColor=none;top=0;left=0;bottom=0;right=0;fontStyle=1;" parent="0Q_aEVLJS1OcodbFEQq5-56" vertex="1"><mxGeometry width="30" height="30" as="geometry"/></mxCell><mxCell id="0Q_aEVLJS1OcodbFEQq5-58" value="id" style="shape=partialRectangle;overflow=hidden;connectable=0;fillColor=none;top=0;left=0;bottom=0;right=0;align=left;spacingLeft=6;fontStyle=1;" parent="0Q_aEVLJS1OcodbFEQq5-56" vertex="1"><mxGeometry x="30" width="120" height="30" as="geometry"/></mxCell><mxCell id="0Q_aEVLJS1OcodbFEQq5-59" value="" style="shape=partialRectangle;collapsible=0;dropTarget=0;pointerEvents=0;fillColor=none;points=[[0,0.5],[1,0.5]];portConstraint=eastwest;top=0;left=0;right=0;bottom=0;" parent="0Q_aEVLJS1OcodbFEQq5-55" vertex="1"><mxGeometry y="60" width="150" height="30" as="geometry"/></mxCell><mxCell id="0Q_aEVLJS1OcodbFEQq5-60" value="" style="shape=partialRectangle;overflow=hidden;connectable=0;fillColor=none;top=0;left=0;bottom=0;right=0;" parent="0Q_aEVLJS1OcodbFEQq5-59" vertex="1"><mxGeometry width="30" height="30" as="geometry"/></mxCell><mxCell id="0Q_aEVLJS1OcodbFEQq5-61" value="name" style="shape=partialRectangle;overflow=hidden;connectable=0;fillColor=none;top=0;left=0;bottom=0;right=0;align=left;spacingLeft=6;" parent="0Q_aEVLJS1OcodbFEQq5-59" vertex="1"><mxGeometry x="30" width="120" height="30" as="geometry"/></mxCell><mxCell id="0Q_aEVLJS1OcodbFEQq5-62" value="" style="shape=partialRectangle;collapsible=0;dropTarget=0;pointerEvents=0;fillColor=none;points=[[0,0.5],[1,0.5]];portConstraint=eastwest;top=0;left=0;right=0;bottom=0;" parent="0Q_aEVLJS1OcodbFEQq5-55" vertex="1"><mxGeometry y="90" width="150" height="30" as="geometry"/></mxCell><mxCell id="0Q_aEVLJS1OcodbFEQq5-63" value="" style="shape=partialRectangle;overflow=hidden;connectable=0;fillColor=none;top=0;left=0;bottom=0;right=0;" parent="0Q_aEVLJS1OcodbFEQq5-62" vertex="1"><mxGeometry width="30" height="30" as="geometry"/></mxCell><mxCell id="0Q_aEVLJS1OcodbFEQq5-64" value="phone (nullable)" style="shape=partialRectangle;overflow=hidden;connectable=0;fillColor=none;top=0;left=0;bottom=0;right=0;align=left;spacingLeft=6;" parent="0Q_aEVLJS1OcodbFEQq5-62" vertex="1"><mxGeometry x="30" width="120" height="30" as="geometry"/></mxCell><mxCell id="0Q_aEVLJS1OcodbFEQq5-65" value="" style="shape=partialRectangle;collapsible=0;dropTarget=0;pointerEvents=0;fillColor=none;points=[[0,0.5],[1,0.5]];portConstraint=eastwest;top=0;left=0;right=0;bottom=0;" parent="0Q_aEVLJS1OcodbFEQq5-55" vertex="1"><mxGeometry y="120" width="150" height="30" as="geometry"/></mxCell><mxCell id="0Q_aEVLJS1OcodbFEQq5-66" value="" style="shape=partialRectangle;overflow=hidden;connectable=0;fillColor=none;top=0;left=0;bottom=0;right=0;" parent="0Q_aEVLJS1OcodbFEQq5-65" vertex="1"><mxGeometry width="30" height="30" as="geometry"/></mxCell><mxCell id="0Q_aEVLJS1OcodbFEQq5-67" value="email (nullable)" style="shape=partialRectangle;overflow=hidden;connectable=0;fillColor=none;top=0;left=0;bottom=0;right=0;align=left;spacingLeft=6;" parent="0Q_aEVLJS1OcodbFEQq5-65" vertex="1"><mxGeometry x="30" width="120" height="30" as="geometry"/></mxCell><mxCell id="0Q_aEVLJS1OcodbFEQq5-35" value="session_recipe" style="shape=table;startSize=30;container=1;collapsible=1;childLayout=tableLayout;fixedRows=1;rowLines=0;fontStyle=1;align=center;resizeLast=1;" parent="1" vertex="1"><mxGeometry x="280" y="210" width="130" height="100" as="geometry"><mxRectangle x="270" y="250" width="120" height="30" as="alternateBounds"/></mxGeometry></mxCell><mxCell id="0Q_aEVLJS1OcodbFEQq5-36" value="" style="shape=partialRectangle;collapsible=0;dropTarget=0;pointerEvents=0;fillColor=none;points=[[0,0.5],[1,0.5]];portConstraint=eastwest;top=0;left=0;right=0;bottom=1;" parent="0Q_aEVLJS1OcodbFEQq5-35" vertex="1"><mxGeometry y="30" width="130" height="30" as="geometry"/></mxCell><mxCell id="0Q_aEVLJS1OcodbFEQq5-37" value="PK" style="shape=partialRectangle;overflow=hidden;connectable=0;fillColor=none;top=0;left=0;bottom=0;right=0;fontStyle=1;" parent="0Q_aEVLJS1OcodbFEQq5-36" vertex="1"><mxGeometry width="30" height="30" as="geometry"/></mxCell><mxCell id="0Q_aEVLJS1OcodbFEQq5-38" value="session_id" style="shape=partialRectangle;overflow=hidden;connectable=0;fillColor=none;top=0;left=0;bottom=0;right=0;align=left;spacingLeft=6;fontStyle=1;" parent="0Q_aEVLJS1OcodbFEQq5-36" vertex="1"><mxGeometry x="30" width="100" height="30" as="geometry"/></mxCell><mxCell id="0Q_aEVLJS1OcodbFEQq5-45" value="" style="shape=partialRectangle;collapsible=0;dropTarget=0;pointerEvents=0;fillColor=none;points=[[0,0.5],[1,0.5]];portConstraint=eastwest;top=0;left=0;right=0;bottom=1;" parent="0Q_aEVLJS1OcodbFEQq5-35" vertex="1"><mxGeometry y="60" width="130" height="30" as="geometry"/></mxCell><mxCell id="0Q_aEVLJS1OcodbFEQq5-46" value="PK" style="shape=partialRectangle;overflow=hidden;connectable=0;fillColor=none;top=0;left=0;bottom=0;right=0;fontStyle=1;" parent="0Q_aEVLJS1OcodbFEQq5-45" vertex="1"><mxGeometry width="30" height="30" as="geometry"/></mxCell><mxCell id="0Q_aEVLJS1OcodbFEQq5-47" value="recipe_id" style="shape=partialRectangle;overflow=hidden;connectable=0;fillColor=none;top=0;left=0;bottom=0;right=0;align=left;spacingLeft=6;fontStyle=1;" parent="0Q_aEVLJS1OcodbFEQq5-45" vertex="1"><mxGeometry x="30" width="100" height="30" as="geometry"/></mxCell><mxCell id="48" style="edgeStyle=orthogonalEdgeStyle;rounded=0;orthogonalLoop=1;jettySize=auto;html=1;exitX=1;exitY=0.5;exitDx=0;exitDy=0;entryX=0;entryY=0.5;entryDx=0;entryDy=0;startArrow=ERone;startFill=0;endArrow=ERmany;endFill=0;" edge="1" parent="1" source="0Q_aEVLJS1OcodbFEQq5-78" target="0Q_aEVLJS1OcodbFEQq5-107"><mxGeometry relative="1" as="geometry"/></mxCell><mxCell id="49" style="edgeStyle=orthogonalEdgeStyle;rounded=0;orthogonalLoop=1;jettySize=auto;html=1;exitX=0;exitY=0.5;exitDx=0;exitDy=0;entryX=0;entryY=0.5;entryDx=0;entryDy=0;endArrow=ERone;endFill=0;startArrow=ERmany;startFill=0;" edge="1" parent="1" source="0Q_aEVLJS1OcodbFEQq5-119" target="C-vyLk0tnHw3VtMMgP7b-24"><mxGeometry relative="1" as="geometry"/></mxCell><mxCell id="50" style="edgeStyle=orthogonalEdgeStyle;rounded=0;orthogonalLoop=1;jettySize=auto;html=1;exitX=1;exitY=0.5;exitDx=0;exitDy=0;entryX=1;entryY=0.5;entryDx=0;entryDy=0;endArrow=ERone;endFill=0;startArrow=ERmany;startFill=0;" edge="1" parent="1" source="0Q_aEVLJS1OcodbFEQq5-45" target="C-vyLk0tnHw3VtMMgP7b-24"><mxGeometry relative="1" as="geometry"/></mxCell><mxCell id="51" style="edgeStyle=orthogonalEdgeStyle;rounded=0;orthogonalLoop=1;jettySize=auto;html=1;exitX=1;exitY=0.5;exitDx=0;exitDy=0;entryX=0;entryY=0.5;entryDx=0;entryDy=0;endArrow=ERone;endFill=0;startArrow=ERmany;startFill=0;" edge="1" parent="1" source="0Q_aEVLJS1OcodbFEQq5-36" target="C-vyLk0tnHw3VtMMgP7b-3"><mxGeometry relative="1" as="geometry"><Array as="points"><mxPoint x="460" y="255"/><mxPoint x="460" y="85"/></Array></mxGeometry></mxCell><mxCell id="52" style="edgeStyle=orthogonalEdgeStyle;rounded=0;orthogonalLoop=1;jettySize=auto;html=1;exitX=0;exitY=0.5;exitDx=0;exitDy=0;entryX=0;entryY=0.5;entryDx=0;entryDy=0;endArrow=ERone;endFill=0;startArrow=ERmany;startFill=0;" edge="1" parent="1" source="0Q_aEVLJS1OcodbFEQq5-52" target="0Q_aEVLJS1OcodbFEQq5-56"><mxGeometry relative="1" as="geometry"/></mxCell><mxCell id="53" style="edgeStyle=orthogonalEdgeStyle;rounded=0;orthogonalLoop=1;jettySize=auto;html=1;exitX=0;exitY=0.5;exitDx=0;exitDy=0;entryX=0;entryY=0.5;entryDx=0;entryDy=0;endArrow=ERone;endFill=0;startArrow=ERmany;startFill=0;" edge="1" parent="1" source="0Q_aEVLJS1OcodbFEQq5-49" target="C-vyLk0tnHw3VtMMgP7b-3"><mxGeometry relative="1" as="geometry"/></mxCell><mxCell id="54" style="edgeStyle=orthogonalEdgeStyle;rounded=0;orthogonalLoop=1;jettySize=auto;html=1;exitX=1;exitY=0.5;exitDx=0;exitDy=0;entryX=1;entryY=0.5;entryDx=0;entryDy=0;startArrow=ERmany;startFill=0;endArrow=ERone;endFill=0;" edge="1" parent="1" source="34" target="0Q_aEVLJS1OcodbFEQq5-81"><mxGeometry relative="1" as="geometry"/></mxCell></root></mxGraphModel></diagram></mxfile>